<svg width="400" height="400" viewBox="0 0 400 400" fill="none" xmlns="http://www.w3.org/2000/svg">
    <!-- Octahedron vertices (projected 3D to 2D) -->
    <g stroke="#000" stroke-width="3" fill="none">
        <!-- Edges -->
        <line x1="200" y1="60" x2="340" y2="200" />
        <line x1="200" y1="60" x2="60" y2="200" />
        <line x1="200" y1="60" x2="200" y2="340" />
        <line x1="340" y1="200" x2="200" y2="340" />
        <line x1="340" y1="200" x2="200" y2="200" />
        <line x1="60" y1="200" x2="200" y2="340" />
        <line x1="60" y1="200" x2="200" y2="200" />
        <line x1="200" y1="200" x2="200" y2="60" />
        <line x1="200" y1="200" x2="340" y2="200" />
        <line x1="200" y1="200" x2="60" y2="200" />
        <line x1="200" y1="200" x2="200" y2="340" />
    </g>
    <!-- Vertices -->
    <circle cx="200" cy="60" r="6" fill="#000" />
    <circle cx="340" cy="200" r="6" fill="#000" />
    <circle cx="60" y="200" r="6" fill="#000" />
    <circle cx="200" cy="340" r="6" fill="#000" />
    <circle cx="200" cy="200" r="6" fill="#000" />
</svg>
